# xmcd CD database file
#
# Track frame offsets:
#	150
#	16625
#	42763
#	65288
#	87700
#	120988
#	149550
#	176300
#	190900
#	214438
#
# Disc length: 3232 seconds
#
# Revision: 2
# Processed by: cddbd v1.4PL0 Copyright (c) Steve Scherf et al.
# Submitted via: CDex 1.50Beta7
#
DISCID=870c9e0a
DTITLE=Charlie Byrd - Java Jazz - Brazilian Blend
DYEAR=1999
DGENRE=Jazz
TTITLE0=Sunrise
TTITLE1=Nova nice
TTITLE2=Bella
TTITLE3=Back Out
TTITLE4=After All
TTITLE5=Carenia
TTITLE6=El Ontono
TTITLE7=Lambada Suave Savor
TTITLE8=Around The Bend
TTITLE9="E" Samba
EXTD=YEAR: 1999
EXTT0=
EXTT1=
EXTT2=
EXTT3=
EXTT4=
EXTT5=
EXTT6=
EXTT7=
EXTT8=
EXTT9=
PLAYORDER=
